  <svg
            xmlns="http://www.w3.org/2000/svg"
            width="40"
            height="40"
            viewBox="0 0 40 40"
          >
            <path
              fill="white"
              fill-rule="evenodd"
              d="M34.201 5.917l.05.05.336.35.019.02h0l.036.038.309.339.048.054h0l.018.021C38.119 10.314 40 14.937 40 20s-1.881 9.686-4.982 13.209l-.018.021-.048.055-.309.339-.038.041-.354.368-.05.05-.059.059c-.244.244-.495.482-.751.714l-.071.063-.385.335-.086.073a20.19 20.19 0 0 1-.783.625l-.066.05A19.91 19.91 0 0 1 20 40a19.92 19.92 0 0 1-12.849-4.673l-.086-.073-.384-.335-.071-.064a20.08 20.08 0 0 1-1.213-1.191 20.47 20.47 0 0 1-.395-.435l.357.394-.309-.339-.048-.054h0l-.019-.021C1.881 29.686 0 25.063 0 20s1.881-9.686 4.982-13.209l.019-.021.048-.055.308-.339.036-.038.019-.02c.386-.411.789-.806 1.208-1.183l.06-.054.389-.339.104-.088a19.99 19.99 0 0 1 .82-.651L8 3.999l.034-.025A19.91 19.91 0 0 1 20 0a19.91 19.91 0 0 1 12 3.998l.038.029a20.16 20.16 0 0 1 .788.627l.105.088.389.339.06.054a20.2 20.2 0 0 1 .762.723l.059.059h0zM20 4c-3.338 0-6.438 1.022-9.002 2.771C14.112 10.296 16 14.928 16 20s-1.888 9.704-5 13.229C13.562 34.978 16.662 36 20 36s6.438-1.022 9.002-2.771C25.888 29.704 24 25.072 24 20s1.888-9.704 5-13.229C26.438 5.022 23.338 4 20 4zM8 9.417l-.111.126C5.466 12.347 4 16.002 4 20a15.94 15.94 0 0 0 4 10.583c2.49-2.821 4-6.526 4-10.583A15.94 15.94 0 0 0 8 9.417zm24.001.001l-.108.122C29.467 12.344 28 16.001 28 20a15.94 15.94 0 0 0 3.999 10.582A15.93 15.93 0 0 0 36 20a15.94 15.94 0 0 0-3.999-10.582z"
            ></path>
          </svg>