  <svg
            xmlns="http://www.w3.org/2000/svg"
            width="36"
            height="46"
            viewBox="0 0 36 46"
          >
            <path
              fill="white"
              fill-rule="evenodd"
              d="M24.292 0c5.947 0 9.815 6.259 7.155 11.578l-1.486 2.971C33.666 17.846 36 22.651 36 28c0 9.941-8.059 18-18 18S0 37.941 0 28c0-5.349 2.334-10.154 6.038-13.451l-1.485-2.971C1.893 6.259 5.761 0 11.708 0h12.584zM18 14c-7.732 0-14 6.268-14 14s6.268 14 14 14 14-6.268 14-14-6.268-14-14-14zm6.292-10H11.708C8.735 4 6.801 7.129 8.131 9.789l1.213 2.425A17.92 17.92 0 0 1 18 10a17.92 17.92 0 0 1 8.657 2.215l1.212-2.426C29.199 7.129 27.265 4 24.292 4z"
            ></path>
          </svg>